<svg xmlns="http://www.w3.org/2000/svg" viewBox="0 0 65.73 65.96"><defs><style>.cls-1{fill:#fff}</style></defs><g id="Слой_2" data-name="Слой 2"><g id="Layer_1" data-name="Layer 1"><g id="money_time" data-name="money time"><path class="cls-1" d="M46.69 4.65a18.94 18.94 0 00-10.33 3.07c.42-2.55.32-4.94-.74-6.41-3.57-4.95-9.56 5.8-12.31 4.69S14.7-.82 10.82 1.52c-3.36 2 2.11 15.61 4.75 17.58a42.14 42.14 0 008.45 1c1.56 0 2.91-.08 4-.19a18.74 18.74 0 00-.34 3.09c-1.27.11-2.56.19-3.88.19a43.64 43.64 0 01-9.44-1C9.14 26.43 0 41.41 0 47.94 0 59.72 10.38 66 23.18 66s23.18-6.24 23.18-18a17.57 17.57 0 00-1.1-5.28c.47 0 1 .07 1.43.07a19 19 0 100-38.08zm-16.27 47a4.93 4.93 0 01-1.1 1.5 5.34 5.34 0 01-1.66 1 6.14 6.14 0 01-2.08.47v1.58h-3.49v-2.04l-.54-.23-.55-.24v.77h-3.45v-5.23H21a7.89 7.89 0 00.89.86 4.1 4.1 0 00.9.59 3.32 3.32 0 001 .35 6.12 6.12 0 001.28.12 2.9 2.9 0 001.57-.39 1.14 1.14 0 00.63-1 1.35 1.35 0 00-.33-.9 2.64 2.64 0 00-.83-.66 5.56 5.56 0 00-1.12-.44c-.41-.1-.81-.19-1.21-.26a10.8 10.8 0 01-3.39-1 6.73 6.73 0 01-2-1.47 4.06 4.06 0 01-.9-1.64 6.18 6.18 0 01-.21-1.48 4.72 4.72 0 011.33-3.3 5.7 5.7 0 011.5-1.1 6.07 6.07 0 011.88-.58v-1.65h3.49v1.9a6.34 6.34 0 011.4.59V37h3.49v5.24H27c-.28-.31-.56-.6-.82-.84a3.71 3.71 0 00-.85-.59 4.23 4.23 0 00-1-.37 5.81 5.81 0 00-1.33-.11 2.37 2.37 0 00-1.61.5 1.46 1.46 0 00-.56 1.08c0 1.07 1.16 1.79 3.49 2.14a10 10 0 013.45 1.06 6.51 6.51 0 012 1.6 4.14 4.14 0 01.86 1.68 7 7 0 01.19 1.36 4.47 4.47 0 01-.4 1.86zM48.28 38.3l-1.59-1.89-1.59 1.89a14.72 14.72 0 01-13-13l2.1-1.76-2.06-1.74a14.69 14.69 0 0113-12.75l1.55 1.84 1.55-1.84a14.71 14.71 0 0113 12.74L59 23.69l2.23 1.88A14.72 14.72 0 0148.28 38.3z"/><path class="cls-1" d="M48.81 23a2.16 2.16 0 00-.29-.43l-1.83-10.63-1.94 10.71a2.28 2.28 0 00-.44 1.35 2.39 2.39 0 002.38 2.39 2.25 2.25 0 00.78-.15l7.21.85L48.81 23z"/></g></g></g></svg>