<svg xmlns="http://www.w3.org/2000/svg" viewBox="0 0 71.76 65.76"><g data-name="Слой 2"><path d="M17.73 46.53H1.5A1.5 1.5 0 000 48v16.26a1.5 1.5 0 001.5 1.5h16.23a1.5 1.5 0 001.5-1.5V48a1.5 1.5 0 00-1.5-1.47zm26.01 0H27.5A1.49 1.49 0 0026 48v16.26a1.5 1.5 0 001.49 1.5h16.25a1.5 1.5 0 001.5-1.5V48a1.5 1.5 0 00-1.5-1.47zm26.52 0H54A1.49 1.49 0 0052.53 48v16.26a1.5 1.5 0 001.47 1.5h16.26a1.5 1.5 0 001.5-1.5V48a1.5 1.5 0 00-1.5-1.47zm-42.5-27.3H44a1.5 1.5 0 001.49-1.5V1.5A1.5 1.5 0 0044 0H27.76a1.5 1.5 0 00-1.5 1.5v16.23a1.5 1.5 0 001.5 1.5zM7.12 41.34h3.08a1.5 1.5 0 001.49-1.5v-6.32h21.16v6.34a1.5 1.5 0 001.49 1.5h3.08a1.5 1.5 0 001.49-1.5v-6.34h21.15v6.33a1.5 1.5 0 001.5 1.49h3.07a1.5 1.5 0 001.5-1.49V29a1.5 1.5 0 00-1.5-1.5H38.91v-2.13a1.5 1.5 0 00-1.5-1.5h-3.07a1.51 1.51 0 00-1.5 1.5v2.08H7.12A1.5 1.5 0 005.63 29v10.84a1.5 1.5 0 001.49 1.5z" fill="#fff" data-name="Layer 1"/></g></svg>