<svg xmlns="http://www.w3.org/2000/svg" viewBox="0 0 58.45 70.6"><g data-name="Слой 2"><path d="M26.87 36.77v6.11a10.41 10.41 0 014.71 0v-6.11a14.69 14.69 0 01-4.71 0zm20.76 18.85h-9.44a1.8 1.8 0 01-1.78-1.81 7.35 7.35 0 00-7.19-7.52A7.35 7.35 0 0022 53.81a1.8 1.8 0 01-1.78 1.81h-9.4a2.28 2.28 0 00-2.22 2.32v10.35a2.27 2.27 0 002.22 2.31h36.81a2.26 2.26 0 002.21-2.31V57.94a2.27 2.27 0 00-2.21-2.32zm-9.45 9.46H20.27a2 2 0 010-3.93h17.91a2 2 0 010 3.93zM13 23a11.5 11.5 0 01-8.29-11.21V4.91h5C9.65 3.33 9.59 1.69 9.56 0h-7.2A2.41 2.41 0 000 2.46v9.33c0 9 6.91 16.26 15.47 16.44A31 31 0 0113 23zM56.09 0h-7.21c0 1.69-.09 3.33-.18 4.91h5v6.88A11.49 11.49 0 0145.43 23 31.76 31.76 0 0143 28.23c8.56-.18 15.47-7.48 15.47-16.44V2.46A2.41 2.41 0 0056.09 0zm-43 0c.32 21.41 6.16 33.28 16.13 33.28S45 21.41 45.35 0z" fill="#fff" data-name="Layer 1"/></g></svg>