<svg xmlns="http://www.w3.org/2000/svg" viewBox="0 0 19.44 19.44"><g data-name="Слой 2"><path d="M18.37 5.3a9.72 9.72 0 00-17.31 0 9.66 9.66 0 000 8.76 9.71 9.71 0 0017.31 0 9.66 9.66 0 000-8.76zm-.64 8.22H14a18.75 18.75 0 00.35-3.38h4.21a8.68 8.68 0 01-.83 3.38zm-8 5.07c-1.34 0-2.54-1.71-3.22-4.22h6.43c-.69 2.51-1.88 4.22-3.22 4.22zM6.3 13.52a17.85 17.85 0 01-.37-3.38h7.58a17.85 17.85 0 01-.37 3.38zM.87 10.14h4.21a18.75 18.75 0 00.35 3.38H1.71a8.68 8.68 0 01-.84-3.38zm.84-4.22h3.72a18.75 18.75 0 00-.35 3.38H.87a8.68 8.68 0 01.84-3.38zm8-5.07c1.34 0 2.53 1.71 3.21 4.22H6.5C7.18 2.56 8.38.85 9.72.85zm3.42 5.07a17.76 17.76 0 01.37 3.38H5.93a17.76 17.76 0 01.37-3.38zm1.23 3.38A18.75 18.75 0 0014 5.92h3.72a8.68 8.68 0 01.84 3.38zm2.9-4.23h-3.44a9.3 9.3 0 00-1.89-3.93 8.85 8.85 0 015.33 3.93zM7.51 1.14a9.3 9.3 0 00-1.89 3.93H2.17a8.9 8.9 0 015.34-3.93zM2.17 14.37h3.45a9.37 9.37 0 001.89 3.93 8.9 8.9 0 01-5.34-3.93zm9.76 3.93a9.37 9.37 0 001.89-3.93h3.44a8.85 8.85 0 01-5.33 3.93z" fill="#fff" data-name="Layer 1"/></g></svg>