<svg xmlns="http://www.w3.org/2000/svg" viewBox="0 0 23.15 23.24"><g data-name="Слой 2"><path d="M4.69 15.45a24.53 24.53 0 008.2 6.42 12.67 12.67 0 004.59 1.36h.33a3.81 3.81 0 003-1.26 12 12 0 01.93-1c.22-.22.45-.44.68-.68a2.33 2.33 0 000-3.46L19.48 14a2.34 2.34 0 00-1.69-.78 2.45 2.45 0 00-1.72.77l-1.72 1.73a3.67 3.67 0 00-.48-.25c-.19-.1-.37-.19-.53-.29a18.49 18.49 0 01-4.36-4 10.44 10.44 0 01-1.47-2.36C8 8.41 8.39 8 8.8 7.56l.44-.45A2.46 2.46 0 0010 5.38a2.46 2.46 0 00-.8-1.73L7.8 2.21l-.49-.5c-.32-.33-.65-.66-1-1A2.4 2.4 0 004.64 0a2.51 2.51 0 00-1.72.75l-1.8 1.8A3.73 3.73 0 000 4.92a8.92 8.92 0 00.69 3.85 22.29 22.29 0 004 6.68zM1.2 5A2.52 2.52 0 012 3.38l1.75-1.79a1.3 1.3 0 01.89-.41 1.25 1.25 0 01.87.42c.32.3.62.61 1 .94l.5.51L8.4 4.49a1.34 1.34 0 01.45.9 1.34 1.34 0 01-.45.9l-.4.45c-.5.46-.92.88-1.38 1.26a1 1 0 00-.24 1.07 10.94 10.94 0 001.69 2.75 19 19 0 004.64 4.23 6.74 6.74 0 00.64.35c.19.1.37.19.53.29h.05a1 1 0 00.47.12 1 1 0 00.71-.33l1.81-1.8a1.27 1.27 0 01.88-.43 1.23 1.23 0 01.85.43l2.9 2.9a1.15 1.15 0 010 1.81c-.2.22-.42.43-.64.65a12.48 12.48 0 00-1 1 2.62 2.62 0 01-2.06.88h-.25a11.56 11.56 0 01-4.16-1.25 23.3 23.3 0 01-7.8-6.11A21.47 21.47 0 011.8 8.38 7.82 7.82 0 011.2 5z" fill="#fff" data-name="Layer 1"/></g></svg>