<svg xmlns="http://www.w3.org/2000/svg" viewBox="0 0 25.16 19.89"><defs><style>.cls-1{fill:#fff}</style></defs><g id="Слой_2" data-name="Слой 2"><g id="Layer_1" data-name="Layer 1"><path class="cls-1" d="M22.41 0H2.75A2.75 2.75 0 000 2.75v11a2.76 2.76 0 002.36 2.72v2.63a.79.79 0 00.48.73.81.81 0 00.31.06.78.78 0 00.55-.23l3.15-3.15h15.56a2.75 2.75 0 002.75-2.75v-11A2.75 2.75 0 0022.41 0zm2 13.76a2 2 0 01-2 2H6.68a.39.39 0 00-.27.11L3.15 19.1v-3a.39.39 0 00-.4-.39 2 2 0 01-2-2v-11a2 2 0 012-2h19.66a2 2 0 012 2z"/><path class="cls-1" d="M8 7.1a.4.4 0 00-.24.5 1.83 1.83 0 01.11.66 2 2 0 11-2-2 2.06 2.06 0 01.65.11.39.39 0 00.27-.74 2.92 2.92 0 00-.89-.13 2.76 2.76 0 102.75 2.76 2.58 2.58 0 00-.16-.92A.39.39 0 008 7.1zm6.68 0a.38.38 0 00-.24.5 2.08 2.08 0 01.11.66 2 2 0 11-2-2 2.08 2.08 0 01.66.11.39.39 0 00.5-.24.4.4 0 00-.24-.5 2.87 2.87 0 00-.92-.16 2.76 2.76 0 102.75 2.76 2.82 2.82 0 00-.15-.92.4.4 0 00-.47-.21zm6.68 0a.39.39 0 00-.24.5 2.08 2.08 0 01.11.66 2 2 0 11-2-2 2.08 2.08 0 01.66.11.39.39 0 10.26-.74 2.82 2.82 0 00-.92-.16A2.76 2.76 0 1022 8.26a2.82 2.82 0 00-.16-.92.4.4 0 00-.48-.24z"/></g></g></svg>