<svg xmlns="http://www.w3.org/2000/svg" viewBox="0 0 17.75 18.19"><g data-name="Слой 2"><g data-name="Layer 1"><path data-name="Check mark" d="M17.7 1.16a1.9 1.9 0 00-.46-.86 1 1 0 00-.66-.3 3.6 3.6 0 00-2.24.94 27.26 27.26 0 00-5.45 5.33 28.71 28.71 0 00-3.84 6.55L4 11.55A28 28 0 001.83 8.9a1 1 0 00-1.48.32C-.75 11 1 12.8 2 14.19c.78 1.12 1.57 2.24 2.35 3.37a1.21 1.21 0 002.24-.33 27.34 27.34 0 014.29-7.61 24.4 24.4 0 012.88-3.12c.89-.81 1.86-1.53 2.76-2.34a3.31 3.31 0 001.18-3z" fill="#973c96"/></g></g></svg>